<svg width="21" height="20" viewBox="0 0 21 20" fill="none" xmlns="http://www.w3.org/2000/svg">
<path fill-rule="evenodd" clip-rule="evenodd" d="M2.375 10C2.375 5.5142 6.0142 1.875 10.5 1.875C14.9858 1.875 18.625 5.5142 18.625 10C18.625 14.4858 14.9858 18.125 10.5 18.125C6.0142 18.125 2.375 14.4858 2.375 10ZM10.5 3.125C6.70455 3.125 3.625 6.20455 3.625 10C3.625 13.7954 6.70455 16.875 10.5 16.875C14.2954 16.875 17.375 13.7954 17.375 10C17.375 6.20455 14.2954 3.125 10.5 3.125ZM10.3184 6.43134C10.5634 6.18822 10.9591 6.18976 11.2023 6.43478L14.303 9.55978C14.5448 9.80346 14.5448 10.1965 14.303 10.4402L11.2023 13.5652C10.9591 13.8102 10.5634 13.8118 10.3184 13.5687C10.0733 13.3255 10.0718 12.9298 10.3149 12.6848L12.3588 10.625H7.14062C6.79545 10.625 6.51562 10.3452 6.51562 10C6.51562 9.65482 6.79545 9.375 7.14062 9.375H12.3588L10.3149 7.31522C10.0718 7.07019 10.0733 6.67447 10.3184 6.43134Z" fill="white"/>
</svg>
