<svg width="48" height="48" viewBox="0 0 48 48" fill="none" xmlns="http://www.w3.org/2000/svg">
<g clip-path="url(#clip0_3886_2733)">
<path d="M29.6875 32.5H20.9375C20.1916 32.5 19.4762 32.2037 18.9488 31.6762C18.4213 31.1488 18.125 30.4334 18.125 29.6875V20.9375C18.125 20.1916 18.4213 19.4762 18.9488 18.9488C19.4762 18.4213 20.1916 18.125 20.9375 18.125H29.6875C30.4334 18.125 31.1488 18.4213 31.6762 18.9488C32.2037 19.4762 32.5 20.1916 32.5 20.9375V29.6875C32.5 30.4334 32.2037 31.1488 31.6762 31.6762C31.1488 32.2037 30.4334 32.5 29.6875 32.5Z" fill="black"/>
<path d="M20 16.875H29.2141C29.0196 16.327 28.6604 15.8527 28.1856 15.517C27.7109 15.1813 27.1439 15.0007 26.5625 15H17.8125C17.0666 15 16.3512 15.2963 15.8238 15.8238C15.2963 16.3512 15 17.0666 15 17.8125V26.5625C15.0007 27.1439 15.1813 27.7109 15.517 28.1856C15.8527 28.6604 16.327 29.0196 16.875 29.2141V20C16.875 19.1712 17.2042 18.3763 17.7903 17.7903C18.3763 17.2042 19.1712 16.875 20 16.875Z" fill="black"/>
</g>
<defs>
<clipPath id="clip0_3886_2733">
<rect width="48" height="48" rx="24" fill="white"/>
</clipPath>
</defs>
</svg>
