<svg width="20" height="20" viewBox="0 0 20 20" fill="none" xmlns="http://www.w3.org/2000/svg">
<path d="M14.7655 12.6562C14.0525 12.656 13.3677 12.9352 12.8581 13.4339L7.89053 10.641C7.99261 10.2197 7.99261 9.78018 7.89053 9.35894L12.8565 6.56597C13.3205 7.01724 13.9299 7.28866 14.5757 7.33162C15.2215 7.37459 15.8615 7.1863 16.3811 6.80046C16.9007 6.41462 17.2661 5.85642 17.4117 5.22581C17.5573 4.59519 17.4738 3.93332 17.1759 3.3587C16.8781 2.78408 16.3855 2.33422 15.7863 2.08966C15.187 1.8451 14.5203 1.82181 13.9055 2.02396C13.2906 2.2261 12.7678 2.64048 12.4306 3.19292C12.0934 3.74535 11.9639 4.39977 12.0651 5.03902L6.98194 7.89839C6.58267 7.56573 6.09687 7.35375 5.58145 7.28726C5.06603 7.22078 4.54233 7.30256 4.07172 7.52301C3.6011 7.74346 3.20306 8.09346 2.92421 8.53201C2.64537 8.97055 2.49727 9.47948 2.49727 9.99917C2.49727 10.5189 2.64537 11.0278 2.92421 11.4663C3.20306 11.9049 3.6011 12.2549 4.07172 12.4753C4.54233 12.6958 5.06603 12.7776 5.58145 12.7111C6.09687 12.6446 6.58267 12.4326 6.98194 12.1L12.0651 14.9609C11.9773 15.5131 12.0608 16.0791 12.3045 16.5823C12.5483 17.0856 12.9404 17.5021 13.4282 17.7756C13.9159 18.0491 14.4758 18.1665 15.0323 18.1119C15.5889 18.0573 16.1153 17.8335 16.5406 17.4704C16.966 17.1074 17.2698 16.6227 17.4111 16.0817C17.5525 15.5406 17.5245 14.9693 17.3311 14.4446C17.1376 13.9199 16.788 13.4672 16.3292 13.1474C15.8705 12.8276 15.3247 12.6562 14.7655 12.6562Z" fill="#1F1F1F"/>
</svg>
