<svg width="17" height="17" viewBox="0 0 17 17" fill="none" xmlns="http://www.w3.org/2000/svg">
<path fill-rule="evenodd" clip-rule="evenodd" d="M0.375 8.18164C0.375 3.69584 4.0142 0.0566406 8.5 0.0566406C12.9858 0.0566406 16.625 3.69584 16.625 8.18164C16.625 12.6674 12.9858 16.3066 8.5 16.3066C4.0142 16.3066 0.375 12.6674 0.375 8.18164ZM8.5 1.30664C4.70455 1.30664 1.625 4.38619 1.625 8.18164C1.625 11.9771 4.70455 15.0566 8.5 15.0566C12.2954 15.0566 15.375 11.9771 15.375 8.18164C15.375 4.38619 12.2954 1.30664 8.5 1.30664ZM8.31837 4.61298C8.5634 4.36986 8.95912 4.3714 9.20225 4.61642L12.303 7.74142C12.5448 7.9851 12.5448 8.37818 12.303 8.62186L9.20225 11.7469C8.95912 11.9919 8.5634 11.9934 8.31837 11.7503C8.07335 11.5072 8.07181 11.1114 8.31494 10.8664L10.3588 8.80664H5.14062C4.79545 8.80664 4.51562 8.52682 4.51562 8.18164C4.51562 7.83646 4.79545 7.55664 5.14062 7.55664H10.3588L8.31494 5.49686C8.07181 5.25183 8.07335 4.85611 8.31837 4.61298Z" fill="#1F1F1F"/>
</svg>
