<svg width="25" height="24" viewBox="0 0 25 24" fill="none" xmlns="http://www.w3.org/2000/svg">
<path d="M19.9869 5C19.9266 5 19.8643 5.01086 19.8024 5.03443L3.83172 11.0989C3.3806 11.2702 3.39249 11.9122 3.84976 12.0665L7.55261 13.317L9.78547 17.7827C9.78588 17.7839 9.7867 17.7852 9.78711 17.7864L9.79326 17.7983L9.7947 17.7974C9.83528 17.8798 9.91952 17.9333 10.0093 17.9333C10.0622 17.9333 10.1163 17.9155 10.163 17.8759L12.2549 16.1034L9.91911 14.3319L10.1019 16.6585L8.42288 13.1846L17.3469 7.82766L9.91911 14.3319L15.7015 18.7171C15.8952 18.8639 16.1168 18.9317 16.3344 18.9317C16.7931 18.9317 17.2342 18.631 17.3584 18.1346L20.4843 5.63989C20.5688 5.30129 20.3041 5 19.9869 5Z" fill="white"/>
</svg>
