<svg width="25" height="24" viewBox="0 0 25 24" fill="none" xmlns="http://www.w3.org/2000/svg">
<path fill-rule="evenodd" clip-rule="evenodd" d="M16.9649 3.46364C14.1987 2.84545 11.3299 2.84545 8.56345 3.46364L8.26526 3.53043C6.67852 3.88507 5.42594 5.10211 5.02588 6.67807C4.32471 9.44071 4.32471 12.3349 5.02588 15.0978C5.40795 16.6031 6.5681 17.7808 8.05433 18.1926L8.46293 20.6329C8.48924 20.791 8.59966 20.9221 8.75078 20.9752C8.90212 21.0283 9.07011 20.9948 9.18952 20.888L11.5906 18.7399C13.3882 18.8496 15.1976 18.7068 16.9649 18.312L17.2631 18.2452C18.8499 17.8905 20.1025 16.6735 20.5025 15.0978C21.2037 12.3349 21.2037 9.44071 20.5025 6.67807C20.1025 5.10211 18.8499 3.88507 17.2631 3.53043L16.9649 3.46364ZM9.3051 6.6061C9.14184 6.58227 8.97521 6.6151 8.83308 6.6992H8.82094C8.49104 6.89238 8.19375 7.13682 7.94031 7.42309C7.72983 7.66663 7.61559 7.9131 7.58545 8.15013C7.56769 8.29157 7.57983 8.4328 7.62188 8.56795L7.63695 8.57717C7.87397 9.27407 8.18386 9.94444 8.56255 10.5757C9.05009 11.4624 9.65007 12.2825 10.3479 13.0156L10.3686 13.0455L10.4014 13.0698L10.4223 13.0941L10.4464 13.1148C11.1824 13.8144 12.0046 14.4173 12.8931 14.9086C13.9086 15.4614 14.525 15.7227 14.8947 15.8311V15.8369C15.0033 15.8698 15.1018 15.8848 15.2012 15.8848C15.5163 15.8617 15.8149 15.7337 16.0488 15.5214C16.3339 15.2678 16.5754 14.9696 16.7643 14.6381V14.6323C16.9413 14.2988 16.8815 13.983 16.6258 13.7696C16.1138 13.3223 15.5603 12.925 14.9727 12.5829C14.579 12.3695 14.1794 12.4986 14.0172 12.7149L13.6714 13.1508C13.4944 13.3669 13.1724 13.337 13.1724 13.337L13.1631 13.3428C10.7621 12.7293 10.1216 10.2986 10.1216 10.2986C10.1216 10.2986 10.0915 9.96805 10.3137 9.79961L10.7466 9.45128C10.9537 9.28262 11.0978 8.88346 10.8757 8.48947C10.5361 7.90096 10.1396 7.34731 9.69167 6.83638C9.59385 6.71585 9.45645 6.63399 9.30398 6.60498L9.3051 6.6061ZM13.3626 5.54962C13.1197 5.54962 12.923 5.74639 12.923 5.98926C12.923 6.23191 13.1197 6.42868 13.3626 6.42868C14.4744 6.42868 15.3982 6.79208 16.1282 7.48786C16.5037 7.86903 16.7963 8.31991 16.9883 8.81352C17.181 9.30893 17.2687 9.83717 17.2463 10.3663C17.2359 10.609 17.4241 10.8138 17.6668 10.8242C17.9094 10.8345 18.1143 10.6463 18.1246 10.4036C18.1523 9.75284 18.0444 9.10316 17.8078 8.49486C17.571 7.88634 17.2107 7.33202 16.7491 6.86517L16.7403 6.85685C15.8345 5.99084 14.6867 5.54962 13.3626 5.54962ZM13.3327 6.99515C13.0898 6.99515 12.8931 7.19214 12.8931 7.43478C12.8931 7.67765 13.0898 7.87442 13.3327 7.87442H13.3469C14.1492 7.93087 14.733 8.19825 15.1423 8.63721C15.5612 9.08922 15.7783 9.65074 15.7623 10.3454C15.7567 10.588 15.9489 10.7895 16.1916 10.7952C16.4342 10.8008 16.6357 10.6085 16.6413 10.3659C16.6625 9.45375 16.369 8.66712 15.7868 8.03903L15.7859 8.03836C15.1911 7.39993 14.3748 7.06216 13.3916 6.99627L13.3768 6.99515H13.3327ZM13.316 8.4672C13.0734 8.45461 12.8665 8.64081 12.8539 8.88323C12.8411 9.12565 13.0273 9.33254 13.2697 9.34536C13.6379 9.3647 13.8724 9.47511 14.0199 9.62398C14.1683 9.77353 14.279 10.0132 14.2992 10.3888C14.3123 10.6312 14.5194 10.8172 14.762 10.8041C15.0044 10.7911 15.1904 10.584 15.1774 10.3416C15.1488 9.81401 14.9838 9.34761 14.6449 9.00534C14.3051 8.6624 13.8414 8.49486 13.316 8.4672Z" fill="white"/>
</svg>
